#!OML:ASF Y:\EmotionMaleHayes\Project 1\Capture day 1\Session 1\Male1.ASF
:FULLY-SPECIFIED
:DEGREES
127
root -28.5859 17.1456 0.2029 36.9613 86.364 34.7447
lowerback 4.57658 1.03942 -4.69816
upperback 1.0596 1.17553 -0.526272
thorax -1.55739 0.612678 2.02321
lowerneck -20.75 2.30493 3.93409
upperneck 25.8101 2.62125 -1.39918
head 12.0099 1.47977 -0.738638
rclavicle -4.22417e-015 1.23246e-014
rhumerus -32.3222 2.1136 -88.7005
rradius 30.1925
rwrist 5.94115
rhand -12.2179 -26.7507
rfingers 7.12502
rthumb 13.847 -56.2698
lclavicle -4.22417e-015 1.23246e-014
lhumerus -29.4732 -14.1299 93.232
lradius 24.7644
lwrist -13.1273
lhand -17.0747 -26.9678
lfingers 7.12502
lthumb 9.16328 2.81314
rfemur 8.31529 -3.08059 12.1781
rtibia 3.54445
rfoot -15.5385 -4.81062
rtoes -1.85024
lfemur 10.6196 0.340518 -17.4665
ltibia -2.21747
lfoot -10.7491 8.62661
ltoes 0
128
root -28.5873 17.1429 0.204541 36.1345 86.3688 33.833
lowerback 4.44415 1.04208 -4.63378
upperback 1.0723 1.18967 -0.534044
thorax -1.46982 0.617372 1.98071
lowerneck -20.8307 2.30568 3.90461
upperneck 25.842 2.60844 -1.33161
head 12.0366 1.4796 -0.709698
rclavicle 2.04997e-015 7.95139e-016
rhumerus -32.3025 2.12901 -88.743
rradius 30.2782
rwrist 5.94943
rhand -12.2417 -26.7594
rfingers 7.12502
rthumb 13.8241 -56.2801
lclavicle 2.04997e-015 7.95139e-016
lhumerus -29.4005 -13.9117 93.113
lradius 24.7759
lwrist -13.3265
lhand -17.0535 -26.9994
lfingers 7.12502
lthumb 9.18374 2.78067
rfemur 8.17276 -3.15314 12.2257
rtibia 3.57906
rfoot -15.4915 -4.7205
rtoes -1.24434
lfemur 10.6362 -0.179057 -17.5566
ltibia -2.42796
lfoot -10.8101 9.06677
ltoes 0
129
root -28.5873 17.1485 0.204698 32.9168 86.4095 30.7256
lowerback 4.53388 1.08068 -4.47355
upperback 1.12096 1.246 -0.450826
thorax -1.47235 0.644251 1.97227
lowerneck -20.8374 2.2843 3.80463
upperneck 25.8262 2.60382 -1.30629
head 12.0294 1.47055 -0.68419
rclavicle -1.42876e-015 4.96962e-016
rhumerus -32.3035 2.11342 -88.6706
rradius 30.3083
rwrist 6.0543
rhand -12.3736 -26.4068
rfingers 7.12502
rthumb 13.6969 -55.9361
lclavicle -1.42876e-015 4.96962e-016
lhumerus -29.3585 -13.8299 93.1555
lradius 24.7474
lwrist -13.3678
lhand -17.0198 -26.967
lfingers 7.12502
lthumb 9.21624 2.81161
rfemur 8.22845 -3.23407 12.4167
rtibia 3.72758
rfoot -15.5242 -4.48801
rtoes -0.896188
lfemur 10.8117 -0.337403 -17.382
ltibia -2.51203
lfoot -10.8571 9.23737
ltoes 0
130
root -28.5916 17.1489 0.207536 31.1938 86.5337 28.9852
lowerback 4.55909 1.0605 -4.29528
upperback 1.09945 1.22498 -0.441537
thorax -1.50386 0.633888 1.88263
lowerneck -20.762 2.28925 3.85646
upperneck 25.7946 2.59906 -1.31501
head 12.003 1.47293 -0.697621
rclavicle -1.72694e-014 1.78906e-015
rhumerus -32.3436 2.06433 -88.7177
rradius 30.2877
rwrist 6.12019
rhand -12.4674 -26.2808
rfingers 7.12502
rthumb 13.6065 -55.8161
lclavicle -1.72694e-014 1.78906e-015
lhumerus -29.4348 -14.0512 93.1788
lradius 24.8333
lwrist -13.1063
lhand -16.9372 -26.8587
lfingers 7.12502
lthumb 9.29596 2.91635
rfemur 8.16387 -3.2805 12.6314
rtibia 3.85966
rfoot -15.5891 -4.53245
rtoes -1.62563
lfemur 10.6558 0.219462 -16.9704
ltibia -2.27985
lfoot -10.7391 8.65954
ltoes 0
131
root -28.594 17.1513 0.210055 30.4852 86.6022 28.3007
lowerback 4.61956 1.03887 -4.27389
upperback 1.07444 1.19342 -0.403618
thorax -1.56179 0.619356 1.9103
lowerneck -20.7003 2.30341 3.89879
upperneck 25.8183 2.62671 -1.36996
head 12.0024 1.48353 -0.721181
rclavicle -1.95057e-015 1.31198e-014
rhumerus -32.4383 2.17323 -88.7297
rradius 30.3081
rwrist 6.05367
rhand -12.5668 -26.3125
rfingers 7.12502
rthumb 13.5108 -55.8543
lclavicle -1.95057e-015 1.31198e-014
lhumerus -29.5312 -14.1389 93.2265
lradius 24.9125
lwrist -12.9981
lhand -16.9587 -26.8475
lfingers 7.12502
lthumb 9.27518 2.92845
rfemur 8.18053 -3.21565 12.7648
rtibia 3.87118
rfoot -15.6114 -4.69908
rtoes -1.7302
lfemur 10.5906 0.5109 -16.7567
ltibia -2.12634
lfoot -10.6853 8.32945
ltoes 0
132
root -28.5949 17.1483 0.210415 30.1979 86.616 27.8952
lowerback 4.48512 1.02433 -4.25745
upperback 1.03707 1.17996 -0.392806
thorax -1.52417 0.611997 1.91493
lowerneck -20.6572 2.3149 3.89925
upperneck 25.8176 2.64608 -1.3703
head 11.9942 1.49278 -0.718534
rclavicle -4.87022e-015 3.8763e-015
rhumerus -32.5356 2.2639 -88.724
rradius 30.3402
rwrist 5.98203
rhand -12.4114 -26.4397
rfingers 7.12502
rthumb 13.6605 -55.9714
lclavicle -4.87022e-015 3.8763e-015
lhumerus -29.5809 -14.1136 93.2151
lradius 24.9733
lwrist -13.1216
lhand -17.1349 -26.9676
lfingers 7.12502
lthumb 9.10521 2.8159
rfemur 8.04909 -3.1913 12.8298
rtibia 3.8675
rfoot -15.6091 -4.77391
rtoes -1.20929
lfemur 10.4919 0.383783 -16.7642
ltibia -2.18103
lfoot -10.709 8.44565
ltoes 0
